<svg xmlns="http://www.w3.org/2000/svg" width="297mm" height="210mm" viewBox="0 0 297 210" class="block w-full h-full origin-top-left cursor-default"><g transform="scale(0.1)"><defs><pattern id="grid" width="100" height="100" patternUnits="userSpaceOnUse"><path d="M 100 0 L 0 0 0 100" fill="none" stroke="#e2e8f0" stroke-width="2"/><path d="M 10 0 L 0 0 0 10" fill="none" stroke="#f1f5f9" stroke-width="0.5"/></pattern></defs><g style="cursor: pointer;"><title>1-250</title><polygon id="1-250" points="1092.5,701.25 1092.5,1101.25 1112.5,1101.25 1112.5,701.25" fill="#000000" stroke="none" stroke-width="0"/></g><g style="cursor: pointer;"><title>2-250</title><polygon id="2-250" points="1102.5,1111.25 1600,1111.25 1600,1091.25 1102.5,1091.25" fill="#000000" stroke="none" stroke-width="0"/></g><g style="cursor: pointer;"><title>3-250</title><polygon id="3-250" points="1610,1101.25 1610,841.25 1590,841.25 1590,1101.25" fill="#000000" stroke="none" stroke-width="0"/></g><g style="cursor: pointer;"><title>4-250</title><polygon id="4-250" points="1600,831.25 1367.5,831.25 1367.5,851.25 1600,851.25" fill="#000000" stroke="none" stroke-width="0"/></g><g style="cursor: pointer;"><title>5-250</title><polygon id="5-250" points="1377.5,841.25 1377.5,696.25 1357.5,696.25 1357.5,841.25" fill="#000000" stroke="none" stroke-width="0"/></g><g style="cursor: pointer;"><title>6-250</title><polygon id="6-250" points="1367.318211863325,686.2516524828668 1092.318211863325,691.2516524828668 1092.681788136675,711.2483475171332 1367.681788136675,706.2483475171332" fill="#000000" stroke="none" stroke-width="0"/></g><g id="corner-fixes"><polygon points="1092.5,1091.25 1102.5,1091.25 1112.5,1091.25 1112.5,1101.25 1112.5,1111.25 1102.5,1111.25 1092.5,1111.25 1092.5,1101.25" fill="#000000" stroke="none"/><polygon points="1590,1091.25 1600,1091.25 1610,1091.25 1610,1101.25 1610,1111.25 1600,1111.25 1590,1111.25 1590,1101.25" fill="#000000" stroke="none"/><polygon points="1590,831.25 1600,831.25 1610,831.25 1610,841.25 1610,851.25 1600,851.25 1590,851.25 1590,841.25" fill="#000000" stroke="none"/><polygon points="1357.5,831.25 1367.5,831.25 1377.5,831.25 1377.5,841.25 1377.5,851.25 1367.5,851.25 1357.5,851.25 1357.5,841.25" fill="#000000" stroke="none"/><polygon points="1357.5,686.4301654258363 1367.318211863325,686.2516524828668 1377.5,686.0665290622001 1377.5,696.25 1377.5,706.0698345741637 1367.681788136675,706.2483475171332 1357.5,706.4334709377999 1357.5,696.25" fill="#000000" stroke="none"/></g><g style="cursor: pointer;"><title>d7-single_swing-0.90-2.10</title><polygon id="d7-single_swing-0.90-2.10" points="1110,1065 1110,975 1095,975 1095,1065" fill="#808080" stroke="#3b82f6" stroke-width="2"/></g><g style="cursor: pointer;"><title>w8-double_vertical-1.20-0.90-1.20</title><polygon id="w8-double_vertical-1.20-0.90-1.20" points="1392,1108.75 1512,1108.75 1512,1093.75 1392,1093.75" fill="#ef4444" stroke="none" stroke-width="0"/></g><g pointer-events="none"><line x1="1102.5" y1="701.25" x2="1102.5" y2="975" stroke="#2563eb" stroke-width="1" stroke-dasharray="4,2"/><circle cx="1102.5" cy="975" r="2" fill="#2563eb"/><text x="1102.5" y="833.125" font-size="29" fill="#2563eb" font-weight="bold" text-anchor="middle">2.74m</text><line x1="1102.5" y1="1065" x2="1102.5" y2="1101.25" stroke="#2563eb" stroke-width="1" stroke-dasharray="4,2"/><circle cx="1102.5" cy="1065" r="2" fill="#2563eb"/><text x="1102.5" y="1078.125" font-size="29" fill="#2563eb" font-weight="bold" text-anchor="middle">0.36m</text></g></g></svg>